<?xml version="1.0" encoding="UTF-8"?>
<svg id="Capa_2" xmlns="http://www.w3.org/2000/svg" xmlns:xlink="http://www.w3.org/1999/xlink" viewBox="0 0 410 1044">
  <defs>
    <style>
      .cls-1 {
        fill: none;
      }

      .cls-2 {
        opacity: .23;
      }

      .cls-3 {
        fill: #56689c;
      }

      .cls-4 {
        clip-path: url(#clippath);
      }
    </style>
    <clipPath id="clippath">
      <rect class="cls-1" width="410" height="1044"/>
    </clipPath>
  </defs>
  <g id="Capa_1-2" data-name="Capa_1">
    <g class="cls-4">
      <g class="cls-2">
        <path class="cls-3" d="M391.58,706.01c7.2,3.6,13.49,5.07,18.58,5.07,6.31,0,10.78-2.25,12.93-5.48,4.87-7.32,11.18-17.34,13.62-23.52,1.69-4.27,1.61-8.55-.25-12.71-4.77-10.69-20.19-16.93-22.26-17.72-5.35-2.67-10.6-3.02-15.62-1.07-10.34,4.02-17.09,17.1-20.93,27.36-3.07,8.2-1.27,20.48,13.92,28.07M382.91,680.57c4.02-10.76,8.91-18.47,14.04-22.45,5.22-3.68,6.58-3.12,7.97-3.12,2.05,0,4.17.57,6.4,1.7.14.07.28.13.42.19,4.33,1.6,16.3,7.41,19.64,14.91,1.11,2.48,1.16,4.92.14,7.48-1.85,4.68-6.78,13.14-13.89,23.82-1.27,1.91-9.24,4.93-23.67-2.29-14.57-7.28-12.16-17.34-11.07-20.25"/>
        <path class="cls-3" d="M186.14,687.88c-9.67-3.52-14.13,26.97-5.87,27.31.1,0-1.03-8.29.68-15.03,2.87-11.33,5.83-12.05,5.19-12.28"/>
        <path class="cls-3" d="M205.57,643.62c5.4-10.37,8.82-9.09,8.25-9.47-8.6-5.64-19.12,18.89-11.16,21.12.1.03-.3-5.48,2.91-11.65"/>
        <path class="cls-3" d="M327.99,773.5c9.9,3.22,12.61-27.13,4.34-26.84-.1,0,1.93,5.87.71,13.7-2.05,13.16-5.7,12.93-5.05,13.14"/>
        <path class="cls-3" d="M323.62,844.79c9.9,2.82,12.61-23.74,4.34-23.49-.1,0,1.93,5.14.71,11.99-2.05,11.51-5.7,11.31-5.05,11.5"/>
        <path class="cls-3" d="M337.35,685.96c9.6,4.02,14.8-26,6.54-26.39-.1,0,1.43,6.01-.43,13.71-3.13,12.95-6.74,12.41-6.11,12.68"/>
        <path class="cls-3" d="M175.47,747.98c-10.29-.04-4.17,30.16,3.72,27.69.1-.03-3.78-7.45-4.45-14.37-1.14-11.64,1.41-13.32.73-13.32"/>
        <path class="cls-3" d="M189.83,856.06c-.06.08,7.4,3.87,11.97,9.12,7.68,8.81,6.59,11.66,7.14,11.27,8.4-5.95-14.12-26.98-19.11-20.38"/>
        <path class="cls-3" d="M423.71,677.95c5.91-8.42-22.38-20.64-24.86-12.75-.03.09,8.27,1.15,14.35,4.55,10.2,5.71,10.12,8.76,10.51,8.2"/>
        <path class="cls-3" d="M309.72,738.18c-12-2.81-11.94,39.12-2.15,37.93.12-.01-2.66-10.95-1.82-20.36,1.4-15.83,4.77-17.38,3.98-17.57"/>
        <path class="cls-3" d="M312.63,812.43c-12-2.46-11.94,34.22-2.15,33.18.12,0-2.66-9.57-1.82-17.82,1.4-13.85,4.77-15.2,3.98-15.37"/>
        <path class="cls-3" d="M322.95,656c-11.73-3.79-15.12,38-5.27,37.63.12,0-1.75-11.13-.14-20.45,2.7-15.66,6.18-16.93,5.41-17.18"/>
        <path class="cls-3" d="M331.46,596.9c-12-2.46-11.94,34.23-2.15,33.19.12-.01-2.66-9.58-1.82-17.82,1.4-13.85,4.77-15.2,3.98-15.37"/>
        <path class="cls-3" d="M224.5,991.66c-2.31-1.16-25.71,31.2-49.51,61.16-24.62,30.99-49.6,59.65-48.18,61.1,2.66,2.73,32.21-26.3,56.92-58.19,23.43-30.25,42.19-63.37,40.77-64.08"/>
        <path class="cls-3" d="M363.93,950.89c.37.45.9.69,1.44.69.41,0,41.15-29.82,42.96-58.99.74-11.87-6.22-19.24-7.01-18.58-.78.66,3.41,11.5.83,21.53-8.29,32.22-38.88,54.56-38.23,55.35"/>
        <path class="cls-3" d="M264.1,326.46c-10.13,19.5-2.46,42.35-.15,48.3.34.87,1.24,1.39,2.17,1.26l3.68-.5c1.24-.17,2.05-1.41,1.68-2.6-2.03-6.56-6.95-26.17.4-43.06,1.56-3.57,2.5-6.83,2.88-9.97.49-4.04.65-10.15-1.41-16.33-1.93-5.78-3.37-23.39,7.83-42.14-1.32,13.41.69,31.45,15.72,46.48l.33.3c.63.51,15.42,12.91,15.42,40.87,0,.12-.04,11.69-2.71,23.76-.28,1.25.62,2.44,1.89,2.5l4.39.19c1.04.05,1.94-.69,2.1-1.71.64-4.01,2.16-14.18,2.82-24.74,1.92-30.68-16.2-45.48-18.37-47.32-22.91-23.08-9.73-55.01-9.16-56.35l6.29-15.27s-17.51,15.14-19.38,17.45c-17.95,22.19-19.25,46.62-15.24,58.66,1.56,4.68,1.43,9.44,1.04,12.6-.28,2.32-.82,4.89-2.24,7.61"/>
        <path class="cls-3" d="M220.09,359.78c11.78,4.85,14.4,15.01,14.99,19.38.15,1.14,1.21,1.92,2.34,1.73l3.87-.63c1.03-.17,1.75-1.07,1.71-2.11-.21-5-2.54-18.46-19.56-26.18-28.86-13.09-31.85-37.9-31.85-37.9l-3.9,12.17c-.3.93-6.7,22.84-.17,43.04,3.62,11.2,13.04,17.94,16.2,19.93.65.41,1.43.51,2.16.27l5.27-1.76c1.3-.43,1.4-2.19.18-2.82-8.2-4.28-13.75-12.66-15.8-18.45-3.32-9.43-2.97-19.7-1.95-27.13,4.79,6.49,12.95,14.86,26.51,20.45"/>
        <path class="cls-3" d="M217.48,153.93c-20.05,28.19-25.5,67.12-20.45,89.43,2.04,9,5.07,20.87,8.01,32.08-21.92-32.04-54.64-45.3-54.64-45.3,0,0,38.3,36,9.84,89.76-10.67,20.16-13.42,38.67-8.18,55.04,4.76,14.85,14.93,24.13,21.36,28.75,1.75,1.26,4.14,1.08,5.7-.42l2.04-1.97c.84-.81.71-2.2-.28-2.81-4.61-2.9-15.98-11.29-20.74-26.14-4.52-14.1-1.96-30.41,7.59-48.47,16.46-31.09,13.58-54.95,6.88-70.82,16.94,15.61,29.96,33.6,37.24,44.7,1.41,2.14,4.73.8,4.27-1.71-2.71-14.69-7.34-39.23-10.81-54.57-4.65-20.52.46-56.46,19.09-82.64,7.03-9.87,16.13-19.8,23.18-26.99-3.68,14.46-8.66,36.57-9.68,53.86-1,17.09,2.57,28.62,5.72,38.78,1.36,4.38,3.98,13.24,5.99,20.1.71,2.41,4.15,2.32,4.72-.13,4.34-18.67,16.07-60.37,38.39-82.69,32.07-32.07,44.59-80.07,42.39-118.39,7.12,20.44,12.18,56.66-4.81,112.41-3.09,10.13-5.49,20.53-7.14,30.91-3.9,24.55-6.45,58.23,3.49,79.23l5.29,11.16c.9,1.91,3.77,1.16,3.63-.95l-.84-12.32c-.03-.53-3.3-52.97,22.3-74.62,11.53-9.76,17.82-23.59,21.25-35.24,1.28,12.62,1.07,29.92-4.8,48.98-.27.69-6.6,17.06.51,41.95,6.59,23.07,8.33,44.82,8.35,45.03l.55,7.12c.18,2.3,3.26,2.9,4.3.84l3.19-6.38c.29-.58,7.15-14.56,12.29-47.11.56-3.55.97-11.12,1.25-18.43,4.44,10.74,9.85,26.28,13.15,44.55,2.07,11.43,5.52,21.98,10.25,31.36,4.12,8.16,9.23,16.84,15.19,25.78,19.91,29.87,17.88,51.14-7.76,77.67-1.04,1.07-1.06,2.78,0,3.83l1.72,1.73c1.31,1.31,3.47,1.3,4.76-.03,28.01-29.22,30.36-54.89,8.36-87.9-5.77-8.66-10.71-17.03-14.67-24.89-4.37-8.65-7.56-18.41-9.48-29.04-6.62-36.6-20.97-61.99-21.57-63.05l-7.66-13.41-.28,15.44c0,.28-.5,27.87-1.64,35.09-1.85,11.72-3.94,20.94-5.82,27.89-1.33-8.05-3.33-18.03-6.3-28.39-6.26-21.92-.83-36.35-.68-36.8,12.82-41.54,1.09-74.27.58-75.65l-7.23-19.63-.99,20.9c-.01.34-1.85,34.04-22.29,51.34-13.97,11.82-20.37,30.77-23.25,47.45-.37-15.41,1.56-31.32,3.27-42.14,1.59-9.99,3.9-20,6.87-29.76,30.47-99.96-6.67-140.11-8.26-141.77l-11.55-12.01,4.38,16.08c10.28,37.67,1.05,97.87-36.28,135.2-19.34,19.33-29.38,48.32-34.31,68.35-.22-.71-.44-1.43-.67-2.14-3.08-9.95-6.27-20.23-5.35-35.77,1.56-26.54,13.31-66.61,13.43-67.01l4.28-14.5-11.2,10.15c-.88.79-21.59,19.65-35.42,39.07"/>
        <path class="cls-3" d="M338.62,624.05c1.29-4.54,3.89-15.35,1.43-21.44-.21-.52-.96-.54-1.19-.02-1.27,2.91-3.99,10.86-1.45,21.42.15.62,1.04.66,1.21.04"/>
        <path class="cls-3" d="M328.71,690.95c1.71-5.06,5.32-17.17,3.44-24.3-.16-.62-.91-.7-1.19-.12-1.54,3.21-5,12.04-3.46,24.28.09.72.97.83,1.2.14"/>
        <path class="cls-3" d="M318.33,764.21c1.29-5.18,3.89-17.54,1.43-24.5-.21-.6-.96-.62-1.19-.02-1.27,3.33-3.99,12.42-1.45,24.48.15.71,1.04.75,1.21.04"/>
        <path class="cls-3" d="M318.33,833.75c1.29-4.54,3.89-15.35,1.43-21.44-.21-.53-.96-.54-1.19-.02-1.27,2.91-3.99,10.86-1.45,21.42.15.62,1.04.66,1.21.04"/>
        <path class="cls-3" d="M333.96,374.09c-.05,1.23.86,2.27,2.09,2.4l4.87.48c1.23.12,2.33-.78,2.4-2.01.4-6.34-1.39-23.65,4.16-32.67,5.75-9.35,15.92-25.83,16.99-37.38,5.52,5.52,9.37,14.17,10.2,23.79,1.2,14.06-2.2,29.7-1.01,36.59.26,1.51,2.21,1.95,3.08.7,2.73-3.89,11.1-10.47,17.92-17.29,3.87-3.87,6.47-9.4,8.2-14.66,10.35,26.36-1.06,46.57-5.43,52.91-.74,1.07-.26,2.53.96,2.94l2.33.78c1.35.45,3.05.31,3.91-.84,27.81-37.33-9.57-88.31-9.57-88.31l2.56,16.6c.83,20.78-13.88,29.97-15.69,32.55,9.73-49.15-27.65-72.94-27.65-72.94,0,0,13.59,23.79-13.59,58.62-9.6,12.31-6.46,31.51-6.74,37.75"/>
        <path class="cls-3" d="M460.22,495.23c11.16-24.21-2.87-49.44-4.54-52.29-11.71-19.32-45.18-59.87-164.12-59.87-108.74,0-141.82,38.49-153.2,63.76-.09.21-9.86,21.68.54,43.55,11.1,23.32,42.87,35.99,53.92,39.79,1.74.6,22.87,8.72,22.87,8.72,3.86,1.52,6.76,4.84,7.72,8.71.13.88.57,7.06,1.03,13.58.99,14.1,2.46,34.92,3.87,46.69-3.95,2.16-9.39,4.09-15.11,6.11-11.49,4.05-23.36,8.24-28.58,16.06-3.51,5.26-7.62,14.25-10.92,21.47-1.63,3.58-3.32,7.28-3.91,8.19-.92,1.33-3.31,4-5.85,6.84-9.22,10.32-18.96,30.56-15.72,53.69.87,6.19,2.26,9.77-1.11,18.21-4.24,10.59-8.49,24.27-3.72,36.2,2.69,6.72,5.42,11.66,7.62,15.64,4.2,7.59,5.44,10.23,3.52,15.03-8.46,21.15-3.27,45.7,11.81,55.89,7.99,5.4,12,10.5,13.55,12.77-2.53,6.81-13.35,33.85-31.98,52.69-18.74,18.97-42.81,38.4-70.67,60.91-25.12,20.29-53.59,43.29-81.53,68.99-1.51,1.39-1.6,3.74-.22,5.25.74.8,1.73,1.2,2.74,1.2.9,0,1.8-.32,2.51-.98,27.77-25.54,56.14-48.46,81.17-68.68,28.03-22.64,52.24-42.2,71.29-61.46,16.14-16.33,27.89-41.33,32.66-52.76,0,0,6.73,6.21,11.1,13.5,2.81,4.69,7.56,13.16,10.58,18.6.49.89,1.84.3,1.53-.67-3.83-11.77-15.94-38.9-38.54-55.5-10.49-7.7-17.13-26.85-9.08-46.98,3.32-8.3.29-13.79-3.92-21.39-2.09-3.79-4.71-8.51-7.22-14.8-2.96-7.39-1.81-16.85,3.72-30.67,4.24-10.61,2.58-16.11,1.45-22.65-3.05-17.73,8.87-41.31,14.02-47.06,2.92-3.27,5.23-5.86,6.49-7.67.89-1.4,2.22-4.27,4.48-9.23,3.02-6.61,7.16-15.66,10.34-20.43,3.84-5.76,15.01-9.7,24.86-13.18,7.18-2.53,13.95-4.92,18.47-7.95,0,0,5.8-2.77,7.99-3.85,55.18-27.23,81.68-15.99,90.04-12.98,6.43,2.44,11.89,5.36,16.52,8.41.47,2.06,1.05,5.78.26,10.24-2.05,11.51-5.7,11.31-5.05,11.5,7.25,2.06,10.64-11.65,8.68-19.02,9.25,6.9,14.41,13.93,16.48,17.16-5.24,7.87-13.19,20.12-16.3,32.23-8.74-11.65-21.84-16.02-58.29-9.63-25.23,4.42-71.47,10.49-71.32,12.54.16,2.04,47.42-.45,73.27-5.37,33.04-6.28,41.77-4.82,54.88,11.19-1.59,21.89,4.5,53.05,29.13,62.11,7.68,2.82,15.82,3.52,23.7,2.44,1.53,9.11-1.74,22.3-10.23,26.55-9.58,4.79-23.34-6.13-37.54-16.7-8.21-6.11-15.96-11.89-22.31-14.58-15.83-6.72-29.01-7.57-61.31-3.99-12.49,1.38-59.72,3.28-59.78,5.34-.07,2.05,47.59,3.5,60.6,2.04,33.76-3.75,44.62-2.06,57.58,3.44,5.53,2.35,12.93,7.86,20.77,13.7,9.84,7.32,20.44,15.2,30.29,19.04,4.04,6.91,5.9,14.31,1.13,30.21-4.37,14.56-12.83,22.36-23.3,20.39-4.32-.82-6.32-1.39-12.62-5.21-7.26-4.42-16.3-9.92-28.38-14.45-22.95-8.6-104.63,1.59-104.63,3.64s80.76-4.66,102.02,3.32c11.42,4.28,20.13,9.58,27.13,13.84,4.35,2.64,8.12,4.93,11.71,6.54.23.49.55.96,1.01,1.33,6.13,4.9,7.13,15.43,2.66,28.15-4.79,13.67-14.27,24.67-18.91,24.67-1.27,0-3.61-1.19-6.1-2.45-4.63-2.35-11.24-6.07-20.55-7.22,4.25-3.65,6.2-6.99,4.59-7.09-1.33-.08-8.65,3.82-15.82,6.67-.93.37-1.91.61-2.89.77-2.66.43-5.46,1.09-8.43,2-35.64,11.02-61.23.32-61.99,2.22-.7,1.74,11.99,7.9,22.08,8.72-2.85.66-7.69,2.21-11.93,5.75-.99.83-.1,2.87,1.09,2.47,4.04-1.36,9.63-3.09,13.36-3.61-2.28,1.91-5.16,4.85-7.17,8.83-.59,1.16,1.04,2.67,1.97,1.83,2.08-1.87,4.35-3.78,6.46-5.32,2.02,20.38,2.49,21.91,6.33,61.48-17.48,20.39,2.83,33.92,8.79,35.8-.22,1.41-.37,2.84-.37,4.31,0,15.36,12.5,27.86,27.87,27.86s27.87-12.5,27.87-27.86c0-.51-.05-1-.07-1.5,4.47-2.69,14.94-10.11,14.94-20.79s-7.5-17.45-11.03-20.33c.44-6.74,3.86-48.74,4.97-62.42.22-2.7,5.27-2.7,6.05-2.7,9.71,0,33.11-18.3,28.74-60.53,33.49-18.93,25.9-54.99,25.12-56.49,7.43-3.72,22.3-18.58,17.49-39.21,12.18-3.5,23.12-11.39,29.9-22.72,4.79-7.99,9.06-16.19,12.44-23.14,4.7,12.12,3.35,23.3,1.5,38.17-1.88,14.98-5.6,22.94-8.07,27.17-4.34-5.17-12.85-8.13-13.84-6.38-.98,1.75,12.63,9.79,16.13,28.5,4.05,21.65-6.92,44.6-20.45,60.71-1.73-5.91-4.15-9.54-4.89-8.07-.61,1.23.41,7.89.15,15.88-.02.32-.05.65-.07,1.01-.38,5.13-1.21,16.03-7.99,25.9-3.16-6.79-18.83-17.92-19.89-16.18-1.08,1.77,20.53,19.99,18.12,44.03-.13,1.25-.23,3.3-.33,3.93-3.99,24.72-25.99,44.63-42.16,59.26-10.63,9.62-17.05,15.43-17.05,21.02,0,34.71-49.63,63.35-50.14,63.64-.59.34-1.09.84-1.42,1.44-.39.71-39.64,71.67-81.15,114.36-1.43,1.47-1.4,3.82.07,5.25.72.7,1.66,1.05,2.59,1.05s1.94-.38,2.66-1.13c39.63-40.76,77.07-106.56,81.82-115.05,7.33-4.35,52.98-32.87,52.98-69.56.15-2.44,8.16-9.69,14.6-15.52,16.11-14.58,38.43-30.33,44.46-63.63.11-.63.5-3.31.55-4.29.22-4.4-.21-12.22-2.65-20.46,10.76-12.51,11.88-27.61,12.32-33.52.03-.44.05-.82.08-1.14,19.06-20.87,35.29-54.99,20.19-84.55.03-.06.07-.12.11-.18,2.43-3.77,8.13-12.6,10.63-32.58,2.15-17.22,3.86-30.83-4.08-46.7-.19-.39-.47-.7-.77-.98,14.4-27.51-.93-47.27-9.96-56.5-14.09-14.4-34.42-20.39-45.35-18.8-12.28,1.78-23.42,12.93-28.23,20.06-2.26-3.3-6.1-8.18-11.92-13.31.01-4.87.21-38.81,2.63-55.71.72-5.06,4.21-9.17,9.11-10.74,4.89-1.56,26.98-6.42,28.4-6.82,44.96-12.54,54.83-30.7,57.74-37.02M309.04,875.36l8.67,1.15-3.71,44.47c-.07.86-.48,1.63-1.16,2.17-.68.54-1.52.77-2.38.65-1.58-.22-2.73-1.59-2.68-3.17l1.25-45.27ZM300.29,875.73l-1.25,43.8c-.06,2.06-1.72,3.68-3.79,3.68s-3.72-1.61-3.79-3.67l-1.24-42.28c3.47-.5,6.9-1.02,10.07-1.53M281.48,878.5l1.23,42.18c.05,1.56-1.08,2.9-2.76,3.14-.83.11-1.66-.11-2.33-.64-.67-.52-1.07-1.28-1.15-2.12l-3.65-41.39c2.61-.35,5.55-.75,8.65-1.17M269.94,880.05l3.64,41.26c.14,1.64.94,3.12,2.23,4.15,1.06.84,2.33,1.29,3.72,1.29.31,0,.63-.02.96-.07,3.02-.43,5.22-3.05,5.13-6.09l-1.25-42.5c.97-.14,1.96-.27,2.94-.41l1.23,41.94c.1,3.64,3.05,6.5,6.7,6.5s6.6-2.86,6.7-6.51l1.26-44.29c1.01-.12,1.99-.21,2.92-.27l-1.26,45.49c-.08,3.07,2.15,5.71,5.19,6.14.29.03.57.06.85.06,1.36,0,2.67-.46,3.75-1.32,1.31-1.05,2.1-2.54,2.25-4.21l3.71-44.49c3.69,1.23,5.65,2.68,5.94,2.8-1.46,20.39-3.47,51.53-4.37,65.53-13.52-5.72-34.95-8.74-53.88,1.46-2.91-27.67-4.37-42.23-5.82-65.53.35-.03,3.21-.39,7.45-.93M317.09,996.04c-1.49,5.87-6.11,16.83-19.77,16.83-6.21,0-18.58-3.71-20.43-20.43-1.24-11.2,9.17-20.43,20.43-20.43,10.19,0,18.67,7.5,20.19,17.28.16,1.03.11,4.64-.42,6.76M332.62,970.15c0,5.31-5.01,10.08-9.07,12.96-3.85-10.78-14.14-18.53-26.23-18.53-11.29,0-21.01,6.76-25.38,16.43-2.86-.95-8.61-4.55-9-10.84-.72-11.7,9.97-17.1,10.03-17.13,8.99-4.5,25.1-5.3,37.28-2.91,16.79,3.3,22.36,15.58,22.36,20.01M403.94,606.03c7.94-.26,25.53,3.38,38.57,16.71,7.26,7.42,15.03,19.72,12.48,36.91-.06.41-.22,1.14-.43,1.95-.45,1.22-.78,1.51-.49,1.54.03,0,.05,0,.08,0-.29,1.03-.6,2.01-.83,2.57-2.58,6.14-9.66,21.7-18.38,36.24-5.97,9.97-26.16,28.6-51.92,18.64-17.3-6.69-29.96-30.9-24.44-54.44,2.38-10.14,10.11-26.52,15.21-35.13,1.45-2.44,17.35-24.57,30.16-24.99M253.88,475.45c-2.02-2.16-6.65-7.27-10.14-12.33-4.79-6.94-7.12-12.37-6.93-16.13.09-1.76.76-3.1,1.98-4.02.15-.09.71-.35.82-.4.78-.21,1.46-.31,2.07-.31,2.97,0,4.32,2.49,6.78,8.31,1.08,2.55,2.31,5.45,4.03,8.37,4.25,7.23,8.17,11.55,11.17,14.14-3.43.68-6.69,1.47-9.79,2.37M281.75,470.59c-1.2-2.26-4.44-8.5-6.79-14.56-3.06-7.87-4.07-13.68-3.02-17.29.49-1.69,1.46-2.83,2.85-3.46.17-.05.77-.18.89-.19,4.84-.17,5.5,2.31,6.77,9.83.46,2.73.99,5.83,1.99,9.07,2.49,8.11,5.35,13.25,7.69,16.46-3.08,0-6.06.09-8.95.25l-1.43-.1ZM329.39,473.97c3.11-2.45,7.47-6.94,12.22-15.03,1.72-2.92,2.94-5.82,4.02-8.37,2.97-7.01,4.31-9.19,8.79-8.01.18.06.74.32.8.36,1.3.98,1.97,2.32,2.06,4.08.19,3.76-2.14,9.18-6.93,16.13-3.43,4.98-8.51,11-10.66,13.36-3.27-.93-6.7-1.78-10.32-2.51M388.37,509.84c3.16-.41,8.19-1.4,11.47-2.78,3.64-1.54,6.59-3.54,9.19-5.31,5.52-3.75,7.58-4.87,10.56-1.65.11.14.44.66.48.73.56,1.53.4,3.02-.46,4.55-1.86,3.26-6.75,6.59-14.52,9.86-2.57,1.08-8.63,3.01-11.68,3.94-1.4-3.14-3.07-6.27-5.04-9.34M373.19,493.04c3.99-.98,9.96-3.06,13.55-5.35,3.34-2.13,5.91-4.6,8.17-6.78,4.81-4.63,6.67-6.08,10.13-3.41.14.13.55.58.6.64.8,1.41.91,2.9.31,4.56-1.28,3.53-5.54,7.62-12.65,12.16-3.58,2.28-9.4,4.17-12.62,5.12-2.25-2.4-4.73-4.73-7.49-6.94M351.58,480.57c3.96-1.75,10.51-5.39,16.68-11.11,2.49-2.31,4.5-4.73,6.27-6.86,4.87-5.87,6.77-7.56,10.73-5.14.15.11.61.52.67.57.95,1.31,1.21,2.79.79,4.5-.9,3.65-4.7,8.17-11.28,13.45-4.11,3.29-10.21,7.35-13.61,9.48-3.16-1.75-6.57-3.39-10.25-4.89M304.82,470.83c2.43-3.73,5.72-9.89,7.86-16.85,1-3.24,1.52-6.34,1.99-9.07,1.24-7.35,2.04-9.83,6.41-9.83h.31c.18.02.78.14.86.16,1.49.66,2.45,1.81,2.95,3.5,1.05,3.6.03,9.42-3.02,17.29-1.89,4.87-5.73,12.77-7.16,15.68-3.27-.38-6.67-.67-10.19-.88M231.1,485.31c-3.31-2.26-8.64-6.29-12.44-9.33-6.58-5.27-10.38-9.8-11.28-13.45-.42-1.71-.16-3.19.73-4.42.12-.13.58-.54.68-.62,1.19-.73,2.19-1.09,3.13-1.09,2.26,0,4.22,2.06,7.65,6.19,1.77,2.13,3.78,4.55,6.27,6.86,6.49,6.01,11.69,9.04,15.36,10.58-3.64,1.61-7.01,3.39-10.1,5.27M212.62,500.86c-3.36-1.37-8.47-3.85-11.81-5.98-7.11-4.54-11.37-8.63-12.65-12.16-.6-1.66-.5-3.16.25-4.47.1-.15.52-.61.61-.69,1.2-.92,2.2-1.36,3.19-1.36,1.93,0,3.81,1.67,6.99,4.73,2.26,2.18,4.83,4.65,8.16,6.78,3.4,2.16,9.2,4.16,13.27,5.2-3,2.57-5.65,5.24-8.01,7.96M200.8,519.18c-3.08-.85-8.1-2.39-11.79-3.94-7.78-3.28-12.66-6.6-14.52-9.86-.88-1.54-1.03-3.03-.51-4.45.07-.16.41-.69.48-.78,1.22-1.33,2.29-1.93,3.49-1.93,1.77,0,3.83,1.3,7.11,3.54,2.6,1.77,5.54,3.77,9.19,5.31,3.68,1.55,8.8,2.61,11.56,2.91-2.01,3.16-3.66,6.26-5.02,9.21M256.17,594.97l-3.43-44.59c0-5.12,4.16-9.28,9.29-9.28s9.29,4.16,9.29,9.45l3.47,38.1c-5.95,1.68-12.15,3.78-18.62,6.32M304.75,583.6c-.99.08-1.99.15-2.98.29-3.9.17-8.01.63-12.33,1.37l-3.26-42.53c0-6.03,4.17-10.93,9.29-10.93s9.29,4.9,9.29,10.93v40.87ZM334.94,589.26c-.43-.16-.86-.32-1.3-.47-5.22-1.88-11.02-3.46-17.4-4.61l3.37-33.8c0-5.12,4.16-9.28,9.29-9.28s9.29,4.16,9.29,9.13l-3.25,39.03ZM354.96,599.04c-3.88-2.45-9.51-5.59-16.4-8.39l3.35-40.26c0-7.17-5.83-13-13-13s-13.01,5.84-13,12.82l-3.34,33.45c-1.35-.13-2.71-.2-4.1-.2v-40.71c0-8.07-5.83-14.65-13-14.65s-13,6.57-13,14.78l3.3,43.09c-2.39.48-4.83,1.04-7.34,1.68l-3.4-37.27c0-7.17-5.83-13-13-13s-13.01,5.84-13,13.15l3.53,45.89c-4.29,1.77-8.7,3.74-13.17,5.86-1.53.67-2.86,1.28-4.02,1.83-1.28-11.89-2.59-30.51-3.51-43.44-.26-3.75-.46-6.51-.61-8.55,1.3-.3,14.06-37.02,62.36-37.02,52.01,0,63.16,33.43,63.16,33.43,0,0-1.68,38.98-1.81,50.52M371.82,531.99c-3.84,1.22-7.12,3.46-9.58,6.39-6.57-16.91-29.09-27.19-51.51-30.13-31.96-4.19-69.76,4.66-81.77,33.21-2.24-4.29-5.96-7.69-10.54-9.49l-13.08-5.14c3.47-8.99,10.52-21.64,24.51-31.9,19.28-13.19,48.56-20.74,87.11-15.49,14.17,1.93,28.73,5.86,41.1,11.67,18.22,9.82,27.5,23.55,31.97,36.9-4.8.89-12.88,2.28-18.2,3.97M434.84,512.2c-9.77,6.2-22.58,10.94-38.64,14.29-.23-.71-.47-1.42-.73-2.13.87-.36,6.06-2.52,10.47-4.38,1.01-.42,1.97-.82,2.83-1.19,8.66-3.65,11.75-7.55,14.05-11.6,1.43-2.5,1.67-5.09.73-7.66-.18-.51-.9-1.6-1.2-1.92-5.34-5.8-10.24-2.47-15.42,1.06-2.46,1.67-5.24,3.56-8.55,4.95-5.31,2.24-10.6,2.38-12.71,2.33-.54-.74-1.11-1.46-1.69-2.19,3.27-1.37,8.32-3.86,11.31-5.77,7.93-5.06,12.55-9.65,14.14-14.02.99-2.71.79-5.29-.57-7.67-.27-.47-1.17-1.43-1.51-1.7-6.25-4.82-10.51-.72-15.03,3.63-2.13,2.05-4.56,4.39-7.58,6.32-5.2,3.32-13.53,4.4-16.68,4.72-.96-.65-1.95-1.28-2.96-1.91,3.3-1.99,8.84-5.44,12.65-8.49,7.34-5.88,11.45-10.93,12.56-15.46.69-2.8.22-5.35-1.39-7.57-.31-.44-1.3-1.3-1.68-1.53-7.08-4.34-11.21.63-15.58,5.9-1.7,2.05-3.62,4.37-5.94,6.51-10.88,10.08-18.51,11.28-19.87,11.67-.83-.29-1.69-.55-2.55-.83,2.24-2.4,6.64-7.31,10.1-12.35,5.34-7.74,7.81-13.77,7.57-18.42-.14-2.88-1.32-5.18-3.51-6.84-.43-.34-1.61-.86-2.06-.99-8.02-2.11-10.56,3.84-13.22,10.14-1.03,2.45-2.21,5.22-3.8,7.94-6.89,11.71-12.66,15.14-14.3,15.93-1.75-.3-3.56-.56-5.39-.81,1.28-2.39,4.48-8.57,6.9-14.8,3.41-8.77,4.43-15.2,3.13-19.67-.81-2.77-2.49-4.74-5-5.85-.5-.23-1.79-.47-2.23-.48-.13,0-.26,0-.39,0-7.95,0-9.01,6.28-10.14,12.92-.44,2.62-.95,5.59-1.87,8.6-2.88,9.36-5.72,15.1-7.77,17.76-1.92-.09-3.81-.15-5.66-.18-2.07-2.77-4.91-8.49-7.7-17.57-.93-3.01-1.43-5.98-1.88-8.6-1.12-6.64-2.19-12.92-10.13-12.92-.13,0-.26,0-.4,0-.43,0-1.73.25-2.22.47-2.51,1.12-4.19,3.09-5,5.86-1.3,4.47-.28,10.91,3.13,19.67,2.11,5.43,4.8,10.8,6.32,13.7-3.18.29-6.24.67-9.19,1.13-2.53-1.63-7.36-5.68-12.93-15.14-1.59-2.72-2.77-5.49-3.81-7.94-2.67-6.3-5.18-12.25-13.23-10.14-.42.12-1.62.65-2.04.98-2.18,1.66-3.37,3.97-3.51,6.85-.24,4.66,2.24,10.68,7.57,18.42,3.09,4.49,6.89,8.83,9.27,11.44-1.16.39-2.29.78-3.4,1.19-1.97-.34-8.42-2.09-18.18-11.13-2.31-2.14-4.24-4.46-5.94-6.5-4.38-5.27-8.51-10.25-15.59-5.9-.37.23-1.36,1.08-1.68,1.52-1.61,2.22-2.08,4.77-1.39,7.57,1.11,4.53,5.22,9.58,12.56,15.46,3.6,2.89,8.42,6.42,11.59,8.45-1.42.96-2.78,1.94-4.08,2.94-3.51-.86-9.98-2.83-14.49-5.71-3.03-1.93-5.45-4.27-7.59-6.32-4.51-4.35-8.78-8.46-15.03-3.63-.34.26-1.23,1.21-1.51,1.69-1.36,2.38-1.56,4.96-.57,7.68,1.59,4.38,6.22,8.97,14.15,14.02,3.13,2,8.12,4.39,11.44,5.73-.85,1.09-1.67,2.18-2.43,3.27-2.56-.42-7.34-1.36-12.1-3.37-3.3-1.39-6.09-3.28-8.54-4.95-5.19-3.53-10.08-6.86-15.42-1.06-.32.35-1.02,1.44-1.2,1.93-.94,2.58-.7,5.16.73,7.66,2.3,4.05,7.63,7.8,16.3,11.46,4.25,1.79,9.2,2.99,11.87,3.64-.35.83-.67,1.65-.96,2.45-5.12-1.53-21.67-6.94-34.7-16.45,11.48-74.05,103.62-80.94,132.75-80.94,41.4,0,135.06,15.16,138.32,84.84M301.54,417.74c-32.46-.96-133.18,6.87-147.71,81.9-3.4-3.76-6.17-7.83-8.14-12.27-7.05-15.91-2.79-32.49-.55-37.51,10.42-23.13,32.69-39.5,66.2-48.66,27.63-7.55,55.66-10.11,80.21-10.11,112.7,0,146.31,36.8,157.73,55.65,1.44,2.45,13.76,24.59,4.18,45.39-1.8,3.9-5.01,7.7-8.1,11.05-4.14-66.15-97.85-84.07-143.83-85.43"/>
      </g>
    </g>
  </g>
</svg>